<svg xmlns="http://www.w3.org/2000/svg" viewBox="0 0 64 64" id="FaceMask">
  <path fill="#ed7613" d="m59 59.005-26.5-9.776L6 59.005z" class="colorb2ff59 svgShape"></path>
  <path fill="#000407" d="M58.835 58.977 32.5 49.758 6.165 58.977l-.33-.943L32.5 48.699l.165.058 26.5 9.277z" class="color37474f svgShape"></path>
  <path fill="#dcd5cf" d="M39.152 56.172 32.5 58.5l-6.652-2.328a5 5 0 0 1-3.348-4.719V40.5h20v10.953a5 5 0 0 1-3.348 4.719z" class="colorcfd8dc svgShape"></path>
  <path fill="#000407" d="m32.5 59.03-6.817-2.386A5.506 5.506 0 0 1 22 51.453V43.5h1v7.953a4.504 4.504 0 0 0 3.013 4.247l6.487 2.27 6.487-2.271A4.503 4.503 0 0 0 42 51.453V43.5h1v7.953c0 2.334-1.48 4.42-3.683 5.191L32.5 59.03z" class="color37474f svgShape"></path>
  <path fill="#f1eeec" d="m44.038 34.866 1.734-.578a5.482 5.482 0 0 0 3.749-5.201v-2.651a1.828 1.828 0 0 0-2.406-1.734l-3.077 1.026v9.138z" class="coloreceff1 svgShape"></path>
  <path fill="#000407" d="M43.538 35.56V25.368l3.418-1.14a2.33 2.33 0 0 1 3.064 2.208v2.651a5.974 5.974 0 0 1-4.09 5.675l-2.392.798zm1-9.471v8.083l1.076-.358a4.976 4.976 0 0 0 3.407-4.727v-2.651c0-.875-.895-1.544-1.748-1.259l-2.735.912z" class="color37474f svgShape"></path>
  <path fill="#f1eeec" d="m21.021 34.866-1.733-.578a5.482 5.482 0 0 1-3.749-5.201v-2.651a1.828 1.828 0 0 1 2.406-1.734l3.077 1.026v9.138z" class="coloreceff1 svgShape"></path>
  <path fill="#000407" d="m21.521 35.56-2.392-.798a5.974 5.974 0 0 1-4.091-5.675v-2.651a2.33 2.33 0 0 1 3.064-2.208l3.419 1.141V35.56zm-4.157-10.453c-.731 0-1.326.596-1.326 1.329v2.651a4.977 4.977 0 0 0 3.407 4.727l1.075.358v-8.083l-2.735-.913a1.33 1.33 0 0 0-.421-.069z" class="color37474f svgShape"></path>
  <path fill="#ffffff" d="M32.885 5.625h-.753c-8.396 0-15.063 7.053-14.6 15.437.468 8.494 1.377 17.366 3.258 20.195 1.871 2.813 5.724 6.988 8.408 8.243h6.607c2.674-1.25 6.494-5.419 8.377-8.205 1.926-2.85 2.839-11.74 3.305-20.241.456-8.381-6.209-15.429-14.602-15.429z" class="colorffffff svgShape"></path>
  <path fill="#f1eeec" d="M41.634 8.547a14.547 14.547 0 0 0-7.249-1.922h-.753c-8.396 0-15.063 7.053-14.6 15.437.468 8.494 1.377 17.366 3.258 20.195 1.459 2.194 4.123 5.211 6.499 7.03.138.076.276.151.409.213h6.607c2.674-1.25 6.494-5.419 8.377-8.205 1.926-2.85 2.839-11.74 3.305-20.241.277-5.092-2.083-9.68-5.853-12.507z" class="coloreceff1 svgShape"></path>
  <path fill="#000407" d="m35.917 50-6.93-.047c-2.702-1.264-6.574-5.354-8.612-8.419-1.625-2.443-2.717-9.13-3.341-20.445a14.99 14.99 0 0 1 4.117-11.236 14.979 14.979 0 0 1 10.982-4.728h.753c4.195 0 8.094 1.677 10.978 4.723a15.002 15.002 0 0 1 4.123 11.233c-.62 11.333-1.729 18.036-3.39 20.493-1.739 2.574-5.669 7.017-8.579 8.378l-.101.048zm-6.605-1h6.379c2.617-1.283 6.354-5.437 8.077-7.985 1.535-2.271 2.618-8.997 3.22-19.988a14.007 14.007 0 0 0-3.851-10.491 13.99 13.99 0 0 0-10.252-4.411h-.753c-3.92 0-7.562 1.568-10.256 4.415a14 14 0 0 0-3.845 10.494c.605 10.977 1.674 17.688 3.176 19.946 1.946 2.926 5.64 6.81 8.105 8.02z" class="color37474f svgShape"></path>
  <path fill="#ffffff" d="m44.5 31.612-12-3.112-12 3.11v9.115c.094.198.19.381.291.532 1.871 2.813 5.724 6.988 8.408 8.243h6.607c2.674-1.25 6.494-5.419 8.377-8.205a4.56 4.56 0 0 0 .318-.578v-9.105z" class="colorffffff svgShape"></path>
  <path fill="#ffbc84" d="M20.5 33.11v7.115c.094.198.19.381.291.532 1.871 2.813 5.724 6.988 8.408 8.243h6.607c2.674-1.25 6.494-5.419 8.377-8.205a4.56 4.56 0 0 0 .318-.578v-7.105l-9.662-2.505a9.31 9.31 0 0 0-4.677 0L20.5 33.11z" class="color84ffff svgShape"></path>
  <path fill="#000407" d="m39.376 33.3-4.663-1.209a8.832 8.832 0 0 0-4.425 0l-4.618 1.197-.251-.968 4.618-1.197a9.836 9.836 0 0 1 4.927 0l4.663 1.209-.251.968z" class="color37474f svgShape"></path>
  <path fill="#000407" d="m35.917 50-6.93-.047c-2.702-1.264-6.574-5.354-8.612-8.419a4.893 4.893 0 0 1-.326-.594L20 40.725v-9.502l10.037-2.601a9.859 9.859 0 0 1 4.927 0L45 31.225l-.048 9.707a5.113 5.113 0 0 1-.355.643c-1.74 2.575-5.67 7.018-8.58 8.378l-.1.047zm-6.605-1h6.38c2.616-1.283 6.354-5.437 8.076-7.985.08-.118.156-.259.232-.413v-8.604l-9.287-2.408a8.843 8.843 0 0 0-4.425 0L21 31.997v8.614a3.3 3.3 0 0 0 .207.37c1.946 2.925 5.64 6.809 8.105 8.019z" class="color37474f svgShape"></path>
</svg>
